<svg width="43" height="42" viewBox="0 0 43 42" fill="none" xmlns="http://www.w3.org/2000/svg">
<circle cx="21.5" cy="21" r="19.5" fill="#2750B9" stroke="white" stroke-width="3"/>
<g clip-path="url(#clip0_101_104)">
<path d="M21.1399 32.25C21.4081 32.0876 21.7004 31.9533 21.9413 31.7579C23.884 30.1771 25.8184 28.5852 27.7532 26.9945C28.4222 26.4446 28.4133 25.7698 27.7404 25.2177C26.095 23.8686 24.4507 22.5178 22.8059 21.1671C22.7445 21.1164 22.6852 21.063 22.607 20.9953C23.0558 20.626 23.4928 20.2654 23.9304 19.906C25.2097 18.8558 26.489 17.8061 27.7689 16.7564C28.4049 16.2352 28.411 15.5444 27.7761 15.022C25.7613 13.3658 23.7438 11.7128 21.7301 10.0555C21.3657 9.7555 20.9683 9.64982 20.534 9.85733C20.102 10.0632 19.9344 10.432 19.9355 10.8993C19.9405 13.3454 19.9377 15.7915 19.9377 18.2377V18.5129C19.8444 18.427 19.7857 18.3758 19.7298 18.3213C18.683 17.2909 17.6384 16.2594 16.59 15.2306C16.1479 14.7975 15.5834 14.7457 15.1447 15.0886C14.7104 15.4277 14.6227 16.0447 14.9513 16.484C15.0167 16.5721 15.096 16.6508 15.1748 16.7284C16.557 18.0907 17.9402 19.4525 19.324 20.8137C19.3811 20.8698 19.4492 20.9155 19.5225 20.9744C19.4397 21.0614 19.3866 21.1203 19.3308 21.1759C17.9268 22.5585 16.5218 23.9401 15.1195 25.3239C14.6763 25.7615 14.6305 26.3329 14.9949 26.7644C15.3487 27.1838 15.978 27.2537 16.4161 26.918C16.5039 26.8508 16.5838 26.7732 16.6626 26.6961C17.6837 25.6922 18.7042 24.6882 19.7225 23.682C19.7795 23.6258 19.8198 23.5537 19.8678 23.4888L19.9388 23.524V23.7497C19.9388 26.1297 19.9522 28.5098 19.9304 30.8899C19.9226 31.5521 20.116 32.0293 20.7827 32.25H21.1399ZM22.0386 29.0223V23.202C23.2357 24.1845 24.4032 25.1428 25.5847 26.1127C24.3982 27.0864 23.2312 28.0436 22.0386 29.0223ZM25.5853 15.8862C24.3993 16.8594 23.229 17.8193 22.0341 18.7996V12.9728C23.2318 13.9558 24.3988 14.913 25.5853 15.8862Z" fill="white"/>
</g>
<defs>
<clipPath id="clip0_101_104">
<rect width="13.5" height="22.5" fill="white" transform="matrix(1 0 0 -1 14.75 32.25)"/>
</clipPath>
</defs>
</svg>
