<svg width="33" height="44" viewBox="0 0 33 44" fill="none" xmlns="http://www.w3.org/2000/svg">
<path fill-rule="evenodd" clip-rule="evenodd" d="M15.0641 42.6125C15.0641 42.6125 0.191406 29.8708 0.191406 17.3333C0.191406 12.913 1.91759 8.67379 4.99022 5.54818C8.06285 2.42257 12.2302 0.666626 16.5756 0.666626C20.9209 0.666626 25.0883 2.42257 28.161 5.54818C31.2336 8.67379 32.9598 12.913 32.9598 17.3333C32.9598 29.8708 18.087 42.6125 18.087 42.6125C17.2596 43.3875 15.8977 43.3791 15.0641 42.6125ZM16.5756 24.625C17.5169 24.625 18.449 24.4364 19.3187 24.0699C20.1884 23.7035 20.9786 23.1664 21.6442 22.4893C22.3098 21.8122 22.8378 21.0084 23.198 20.1237C23.5583 19.239 23.7437 18.2908 23.7437 17.3333C23.7437 16.3757 23.5583 15.4276 23.198 14.5429C22.8378 13.6582 22.3098 12.8544 21.6442 12.1773C20.9786 11.5002 20.1884 10.9631 19.3187 10.5967C18.449 10.2302 17.5169 10.0416 16.5756 10.0416C14.6745 10.0416 12.8513 10.8099 11.507 12.1773C10.1627 13.5448 9.40751 15.3994 9.40751 17.3333C9.40751 19.2672 10.1627 21.1218 11.507 22.4893C12.8513 23.8567 14.6745 24.625 16.5756 24.625Z" fill="#F49D37"/>
</svg>
