<svg width="14" height="13" viewBox="0 0 14 13" fill="none" xmlns="http://www.w3.org/2000/svg">
<path d="M1.30156 7.66757L6.24258 12.6764C6.44766 12.8842 6.71836 13 7 13C7.28164 13 7.55234 12.8842 7.75742 12.6764L12.6984 7.66757C13.5297 6.82733 14 5.64861 14 4.41645V4.24424C14 2.16887 12.6191 0.399312 10.7352 0.0578701C9.48828 -0.167778 8.21953 0.274611 7.32813 1.24252L7 1.59881L6.67187 1.24252C5.78047 0.274611 4.51172 -0.167778 3.26484 0.0578701C1.38086 0.399312 0 2.16887 0 4.24424V4.41645C0 5.64861 0.470312 6.82733 1.30156 7.66757Z" fill="#DB6565"/>
</svg>
